<svg width="142" height="150" viewBox="0 0 142 150" fill="none" xmlns="http://www.w3.org/2000/svg">
<g clip-path="url(#clip0_102_482)">
<path d="M51.0463 9.95076C58.2827 1.16307 67.2319 -1.16309 78.1935 0.473835C83.9313 1.33537 89.8831 2.84307 94.1222 6.84922C98.0615 10.5538 99.9455 15.9385 102.772 20.5477C106.197 26.2338 111.121 30.9723 114.161 36.8738C123.624 55.2246 118.058 83.9138 107.353 100.455C105.169 103.858 102.515 107.132 99.0463 109.2C91.5102 113.68 82.0472 111.742 73.4406 110.062C63.9777 108.252 54.3434 106.831 44.7091 106.271C37.0017 105.84 30.4933 104.074 26.4255 96.6646C23.0428 90.5477 22.7002 83.2246 23.214 76.2461C24.884 53.1138 35.5031 31.36 49.0767 12.4923C49.719 11.6308 50.3612 10.7692 51.0463 9.95076Z" fill="#7678ED"/>
<path d="M100.459 71.2492C101.958 70.9477 103.2 70.4308 104.142 68.9231C103.628 68.8369 103.2 68.6646 102.772 68.6646C101.872 68.7077 100.973 68.9231 100.074 68.9231C99.7315 68.9231 99.3033 68.6215 99.132 68.3631C99.0036 68.1477 99.0464 67.6739 99.2176 67.4585C99.7743 66.7692 100.417 66.2092 100.973 65.5631C101.145 65.3477 101.359 65.0031 101.316 64.7877C101.23 64.5723 100.845 64.3569 100.588 64.3139C100.202 64.2708 99.7743 64.4 99.3889 64.4862C97.7618 64.7446 96.1347 65.0462 94.5076 65.3046C94.1222 65.3477 93.7368 65.2185 94.0366 64.7015C94.3791 64.0554 94.7217 63.3662 95.1499 62.7631C96.0919 61.4277 96.6913 59.9631 97.0767 58.4123C97.1195 58.24 97.0339 57.9385 96.9054 57.8092C96.777 57.7231 96.4772 57.7231 96.306 57.7662C95.9206 57.9385 95.578 58.24 95.1927 58.4554C94.5076 58.9292 93.9081 59.6615 92.752 59.3169C92.9233 58.8862 93.0517 58.4985 93.1802 58.0677C93.4799 57.3354 93.9509 56.6031 94.0794 55.8277C94.2935 54.5354 94.5076 53.7169 93.3086 53.0277C92.3666 53.9323 91.81 55.3108 90.2685 55.7846C90.2685 55.4831 90.2257 55.2677 90.3113 55.1385C90.868 53.8462 91.5102 52.5969 91.9813 51.2615C92.1525 50.7446 92.1953 49.8831 91.8956 49.4954C91.4246 48.8923 90.7823 49.4954 90.3113 49.84C90.2257 49.9262 90.14 50.0123 90.0544 50.0554C89.7119 50.2277 89.3693 50.4 88.8555 50.6585C89.4549 48.2462 90.611 46.3077 90.6539 43.8954C89.0267 44.4985 88.5986 46.1785 87.3996 47.2554C87.3568 46.9539 87.314 46.7385 87.3568 46.5662C87.4425 45.3169 87.5709 44.0246 87.6137 42.7754C87.6137 42.3446 87.3996 41.9139 87.2284 41.2677C86.5433 42.0862 86.0722 42.6462 85.43 43.3785C85.43 42.9908 85.43 42.8615 85.43 42.7323C85.5156 41.9139 85.6441 41.0954 85.6441 40.2769C85.6441 40.0615 85.4728 39.7169 85.3015 39.6739C85.173 39.6308 84.8305 39.8031 84.702 39.9754C84.1454 40.6646 83.76 40.7077 83.2034 40.0185C82.4326 39.0708 81.7904 37.9939 80.934 37.1323C80.2917 36.4862 80.2489 35.8831 80.4202 35.0646C80.8055 33.0831 81.1052 31.1015 81.405 29.12C81.5763 28.0431 81.6191 26.9231 81.8332 25.8031C82.2614 23.4339 82.5183 21.1077 82.0901 18.7385C81.8332 17.4031 80.5914 16.6277 79.4353 17.0585C78.9215 17.2739 78.4077 17.6185 77.9795 18.0062C77.5085 18.5231 77.0803 19.0831 76.7377 19.7292C75.7529 21.7539 74.8109 23.8215 73.8689 25.8892C73.4407 26.8369 73.1409 27.8708 72.7127 29.12C72.2417 28.56 71.8564 28.2154 71.7279 27.8277C71.2141 26.4062 70.6574 24.9846 70.3577 23.52C69.8011 20.8062 69.4157 18.0492 68.9875 15.2923C68.8162 14 68.859 12.7077 68.6021 11.4585C68.4309 10.5969 68.0455 9.73539 67.5745 8.96001C67.1035 8.2277 66.033 8.18462 65.4763 8.87385C65.1338 9.30462 64.7484 9.77847 64.5772 10.2523C64.1061 11.9323 63.6351 13.6123 63.421 15.3354C62.8644 19.0831 62.95 22.8308 63.5923 26.5785C63.9349 28.6031 64.2774 30.6277 65.3479 32.3939C65.4763 32.6092 65.5192 32.9108 65.6476 33.1692C64.7912 33.3846 64.0205 33.5139 63.2926 33.7723C61.8796 34.2462 60.4665 34.6769 59.1391 35.3231C58.0259 35.8831 57.1267 36.7446 56.099 37.4339C54.3434 38.64 53.1445 40.2769 52.6307 42.3015C51.9456 45.1877 51.5602 48.16 50.9179 51.0462C50.661 52.08 50.2328 53.2 49.5905 54.0615C48.7342 55.2246 47.578 56.1723 46.6788 57.2923C45.0945 59.2739 43.2105 60.9539 41.198 62.4615C39.9563 63.3662 39.0571 64.5723 38.0722 65.6923C36.4451 67.5877 35.4175 69.6123 35.8457 72.24C36.231 74.7385 37.2159 76.7631 39.6565 77.7539C40.4273 78.0554 41.2837 78.1415 42.0972 78.1846C43.0821 78.2277 44.0669 78.1415 45.0089 77.9692C45.0089 77.9692 48.4772 77.6677 55.3283 74.7816C56.8269 74.3077 58.3684 73.8769 59.8671 73.4031C61.3657 72.9292 62.7788 72.2831 64.3631 72.0246C65.4763 71.8523 65.8189 71.8523 65.7333 73.1877C65.6048 74.9539 65.4335 76.7631 65.4335 78.5292C65.4335 81.0708 65.6048 83.6123 65.7333 86.1539C65.7761 87.1877 66.033 88.1785 66.1615 89.2123C66.4184 90.72 66.6753 92.2277 66.8894 93.7785C66.975 94.3815 67.2747 95.1139 67.0606 95.6308C67.0606 95.6308 98.0615 104.634 105.897 73.0585C104.099 72.4123 102.172 72.3262 100.459 71.2492ZM63.5923 63.28C63.0357 65.0462 62.2221 66.8123 60.9375 68.1908C59.6958 69.4831 58.0687 70.3877 56.2703 70.56C55.9277 70.6031 55.628 70.2585 55.628 69.9139C55.628 69.5262 55.9277 69.3108 56.2703 69.2677C59.5673 69.0092 61.4514 65.7785 62.3506 62.9785C62.6075 62.16 63.8492 62.4615 63.5923 63.28ZM68.4309 51.6492C67.1035 52.6831 65.6476 53.0277 64.1918 53.4585C62.2221 53.9754 60.2096 54.3631 58.24 54.7939C57.3836 54.9662 56.6985 54.3631 56.6557 53.2431C56.6128 52.1662 56.7841 51.0892 56.8697 50.0554C56.9554 48.5477 57.2123 47.0831 57.8974 45.7477C59.0107 43.6369 60.6806 42.1723 63.9777 42C64.7056 42.1723 66.1615 42.4308 67.4888 42.9477C68.6449 43.3785 69.5441 44.24 69.7582 45.5754C69.8011 45.7046 69.8867 45.8339 69.9723 45.9631C70.9572 47.7723 70.058 50.3569 68.4309 51.6492Z" fill="white"/>
<path d="M62.95 47.0831C61.7939 47.0831 60.8091 48.0308 60.8091 49.2369C60.8091 49.5815 60.8947 49.9261 61.0232 50.1846C61.0232 50.2277 61.0232 50.2708 61.0232 50.2708C61.0232 50.6154 61.3229 50.9169 61.6655 50.9169C62.008 50.9169 62.3077 50.6154 62.3077 50.2708C62.3077 50.2277 62.3077 50.1415 62.3077 50.0985V50.0554V50.0123C62.3077 49.9261 62.3506 49.84 62.3506 49.7969C62.3506 49.7538 62.3934 49.7108 62.3934 49.7108L62.4362 49.6246L62.479 49.5815H62.5647C62.6503 49.5815 62.7359 49.5385 62.8216 49.5385H62.9072C62.95 49.5385 63.0357 49.5385 63.0785 49.5385C63.2069 49.5385 63.2926 49.5385 63.421 49.5385L63.5495 49.5815H63.5923L63.6351 49.6246L63.6779 49.5385C63.6779 49.5815 63.7208 49.6246 63.7208 49.6246C63.7208 49.6677 63.7636 49.7108 63.7636 49.7538V49.7969C63.7636 49.9261 63.7636 50.0554 63.7636 50.1846C63.7636 50.5292 64.0633 50.8308 64.4059 50.8308C64.7484 50.8308 65.0482 50.5292 65.0482 50.1846C65.0482 50.0123 65.0482 49.84 65.0053 49.6677C65.0482 49.5385 65.0482 49.3661 65.0482 49.1938C65.091 48.0308 64.149 47.0831 62.95 47.0831Z" fill="white"/>
</g>
<path d="M1.18653 136.304C1.18653 134.96 1.45053 133.768 1.97853 132.728C2.52253 131.688 3.25853 130.888 4.18653 130.328C5.11453 129.768 6.14653 129.488 7.28253 129.488C8.14653 129.488 8.97053 129.68 9.75453 130.064C10.5385 130.432 11.1625 130.928 11.6265 131.552V125.24H15.0345V143H11.6265V141.032C11.2105 141.688 10.6265 142.216 9.87453 142.616C9.12253 143.016 8.25053 143.216 7.25853 143.216C6.13853 143.216 5.11453 142.928 4.18653 142.352C3.25853 141.776 2.52253 140.968 1.97853 139.928C1.45053 138.872 1.18653 137.664 1.18653 136.304ZM11.6505 136.352C11.6505 135.536 11.4905 134.84 11.1705 134.264C10.8505 133.672 10.4185 133.224 9.87453 132.92C9.33053 132.6 8.74653 132.44 8.12253 132.44C7.49853 132.44 6.92253 132.592 6.39453 132.896C5.86653 133.2 5.43453 133.648 5.09853 134.24C4.77853 134.816 4.61853 135.504 4.61853 136.304C4.61853 137.104 4.77853 137.808 5.09853 138.416C5.43453 139.008 5.86653 139.464 6.39453 139.784C6.93853 140.104 7.51453 140.264 8.12253 140.264C8.74653 140.264 9.33053 140.112 9.87453 139.808C10.4185 139.488 10.8505 139.04 11.1705 138.464C11.4905 137.872 11.6505 137.168 11.6505 136.352ZM24.2202 143.216C22.9402 143.216 21.7882 142.936 20.7642 142.376C19.7402 141.8 18.9322 140.992 18.3402 139.952C17.7642 138.912 17.4762 137.712 17.4762 136.352C17.4762 134.992 17.7722 133.792 18.3642 132.752C18.9722 131.712 19.7962 130.912 20.8362 130.352C21.8762 129.776 23.0362 129.488 24.3162 129.488C25.5962 129.488 26.7562 129.776 27.7962 130.352C28.8362 130.912 29.6522 131.712 30.2442 132.752C30.8522 133.792 31.1562 134.992 31.1562 136.352C31.1562 137.712 30.8442 138.912 30.2202 139.952C29.6122 140.992 28.7802 141.8 27.7242 142.376C26.6842 142.936 25.5162 143.216 24.2202 143.216ZM24.2202 140.288C24.8282 140.288 25.3962 140.144 25.9242 139.856C26.4682 139.552 26.9002 139.104 27.2202 138.512C27.5402 137.92 27.7002 137.2 27.7002 136.352C27.7002 135.088 27.3642 134.12 26.6922 133.448C26.0362 132.76 25.2282 132.416 24.2682 132.416C23.3082 132.416 22.5002 132.76 21.8442 133.448C21.2042 134.12 20.8842 135.088 20.8842 136.352C20.8842 137.616 21.1962 138.592 21.8202 139.28C22.4602 139.952 23.2602 140.288 24.2202 140.288ZM40.9888 129.512C42.5728 129.512 43.8528 130.016 44.8288 131.024C45.8048 132.016 46.2928 133.408 46.2928 135.2V143H42.9328V135.656C42.9328 134.6 42.6688 133.792 42.1408 133.232C41.6128 132.656 40.8928 132.368 39.9808 132.368C39.0528 132.368 38.3168 132.656 37.7728 133.232C37.2448 133.792 36.9808 134.6 36.9808 135.656V143H33.6208V129.704H36.9808V131.36C37.4288 130.784 37.9968 130.336 38.6848 130.016C39.3888 129.68 40.1568 129.512 40.9888 129.512ZM57.36 143L52.848 137.336V143H49.488V125.24H52.848V135.344L57.312 129.704H61.68L55.824 136.376L61.728 143H57.36ZM75.8637 136.064C75.8637 136.544 75.8317 136.976 75.7677 137.36H66.0477C66.1277 138.32 66.4637 139.072 67.0557 139.616C67.6477 140.16 68.3757 140.432 69.2397 140.432C70.4877 140.432 71.3757 139.896 71.9037 138.824H75.5277C75.1437 140.104 74.4077 141.16 73.3197 141.992C72.2317 142.808 70.8957 143.216 69.3117 143.216C68.0317 143.216 66.8797 142.936 65.8557 142.376C64.8477 141.8 64.0557 140.992 63.4797 139.952C62.9197 138.912 62.6397 137.712 62.6397 136.352C62.6397 134.976 62.9197 133.768 63.4797 132.728C64.0397 131.688 64.8237 130.888 65.8317 130.328C66.8397 129.768 67.9997 129.488 69.3117 129.488C70.5757 129.488 71.7037 129.76 72.6957 130.304C73.7037 130.848 74.4797 131.624 75.0237 132.632C75.5837 133.624 75.8637 134.768 75.8637 136.064ZM72.3837 135.104C72.3677 134.24 72.0557 133.552 71.4477 133.04C70.8397 132.512 70.0957 132.248 69.2157 132.248C68.3837 132.248 67.6797 132.504 67.1037 133.016C66.5437 133.512 66.1997 134.208 66.0717 135.104H72.3837ZM91.0362 129.704L82.8042 149.288H79.2282L82.1082 142.664L76.7802 129.704H80.5482L83.9802 138.992L87.4602 129.704H91.0362ZM91.9834 136.328C91.9834 135 92.2554 133.824 92.7994 132.8C93.3594 131.76 94.1114 130.952 95.0554 130.376C95.9994 129.8 97.0394 129.512 98.1754 129.512C99.1194 129.512 99.9514 129.696 100.671 130.064C101.407 130.416 101.999 130.872 102.447 131.432V129.704H105.831V149.336H102.447V141.176C101.999 141.752 101.399 142.232 100.647 142.616C99.8954 143 99.0474 143.192 98.1034 143.192C96.9834 143.192 95.9514 142.904 95.0074 142.328C94.0794 141.736 93.3434 140.92 92.7994 139.88C92.2554 138.84 91.9834 137.656 91.9834 136.328ZM102.447 136.352C102.447 135.536 102.279 134.832 101.943 134.24C101.607 133.648 101.167 133.2 100.623 132.896C100.095 132.592 99.5274 132.44 98.9194 132.44C98.3274 132.44 97.7594 132.592 97.2154 132.896C96.6874 133.2 96.2554 133.648 95.9194 134.24C95.5834 134.816 95.4154 135.512 95.4154 136.328C95.4154 137.144 95.5834 137.856 95.9194 138.464C96.2554 139.056 96.6874 139.504 97.2154 139.808C97.7594 140.112 98.3274 140.264 98.9194 140.264C99.5274 140.264 100.095 140.112 100.623 139.808C101.167 139.504 101.607 139.056 101.943 138.464C102.279 137.872 102.447 137.168 102.447 136.352ZM121.665 129.704V143H118.281V141.32C117.849 141.896 117.281 142.352 116.577 142.688C115.889 143.008 115.137 143.168 114.321 143.168C113.281 143.168 112.361 142.952 111.561 142.52C110.761 142.072 110.129 141.424 109.665 140.576C109.217 139.712 108.993 138.688 108.993 137.504V129.704H112.353V137.024C112.353 138.08 112.617 138.896 113.145 139.472C113.673 140.032 114.393 140.312 115.305 140.312C116.233 140.312 116.961 140.032 117.489 139.472C118.017 138.896 118.281 138.08 118.281 137.024V129.704H121.665ZM126.684 128.12C126.092 128.12 125.596 127.936 125.196 127.568C124.812 127.184 124.62 126.712 124.62 126.152C124.62 125.592 124.812 125.128 125.196 124.76C125.596 124.376 126.092 124.184 126.684 124.184C127.276 124.184 127.764 124.376 128.148 124.76C128.548 125.128 128.748 125.592 128.748 126.152C128.748 126.712 128.548 127.184 128.148 127.568C127.764 127.936 127.276 128.12 126.684 128.12ZM128.34 129.704V143H124.98V129.704H128.34ZM134.732 140.24H140.66V143H130.916V140.288L136.724 132.464H130.94V129.704H140.588V132.416L134.732 140.24Z" fill="#000064"/>
<defs>
<clipPath id="clip0_102_482">
<rect width="96" height="112" fill="white" transform="translate(23)"/>
</clipPath>
</defs>
</svg>
